<svg xmlns="http://www.w3.org/2000/svg" xmlns:xlink="http://www.w3.org/1999/xlink" version="1.1" x="0px" y="0px" viewBox="0 0 100 100" enable-background="new 0 0 100 100" xml:space="preserve"><path d="M31.284,41.186c0.012-0.494,0.253-1.286,0.449-1.71c0.426-0.879,0.787-1.442,1.665-2.052l6.562-4.669l-0.698-7.765  l-4.226,6.552l-4.227-6.552l-0.698,7.765l-6.786-3.836l2.99,7.2l-7.792-0.244l5.994,4.986l-7.013,3.405l7.624,1.63l-4.626,6.273  l7.507-2.101l-1.181,7.706l4.148-3.912C30.963,53.725,31.284,41.186,31.284,41.186z"></path><path d="M80.068,57.583l5.834-0.726l-5.049-3.017l4.83-3.355l-5.869-0.325l2.713-5.216l-5.348,2.44l-0.016-5.879L74.51,48.82  c0.934,0.773,2.527,2.613,2.016,5.625c-0.758,4.442-6.854,4.518-6.854,4.518l2.045,8.42l2.385-5.373l3.914,4.389l-0.385-5.867  l5.502,2.068L80.068,57.583z"></path><path d="M31.777,71.456c-1.266,7.053-2.476,13.798-3.751,20.927c10.572,0,20.407,0,31.227,0c-1.354-7.341-2.594-14.075-3.855-20.927  C47.364,71.456,39.643,71.456,31.777,71.456z"></path><circle cx="66.52" cy="24.652" r="7.268"></circle><path d="M65.771,56.717l4.525-0.297c2.098-0.137,3.699-1.836,3.568-3.793c-0.131-1.959-1.934-3.435-4.029-3.297l-9.062,0.595  c0,0,0.443-14.222,0.389-14.476c0.27-3.323-3.279-5.133-4.986-6.187c-2.064-1.021-4.848-0.201-6.848,1.205l-12.461,8.94  c-0.878,0.609-1.503,1.179-1.82,2.098c-0.197,0.424-0.283,1.168-0.295,1.663c0,0-0.32,12.54-0.307,12.678  c0.073,0.805,0.401,1.538,0.923,2.099c-0.163,0.5-0.288,0.945-0.361,1.318c-0.913,4.623,1.439,7.558,3.979,9.172  c4.343,1.707,19.833-1.326,19.833-1.326l5.793,21.273c0.572,2.095,3.191,3.205,5.854,2.48c2.66-0.725,4.354-3.01,3.787-5.104  l-7.455-27.37C66.609,57.699,66.258,57.146,65.771,56.717z M51.043,56.875l1.201-2.43c0.354,0.895,0.969,1.637,1.74,2.146  C52.334,56.75,51.043,56.875,51.043,56.875z"></path></svg>