<?xml version="1.0" encoding="UTF-8" standalone="no"?>
<!-- Created with Inkscape (http://www.inkscape.org/) -->

<svg
   xmlns:dc="http://purl.org/dc/elements/1.1/"
   xmlns:cc="http://creativecommons.org/ns#"
   xmlns:rdf="http://www.w3.org/1999/02/22-rdf-syntax-ns#"
   xmlns:svg="http://www.w3.org/2000/svg"
   xmlns="http://www.w3.org/2000/svg"
   xmlns:sodipodi="http://sodipodi.sourceforge.net/DTD/sodipodi-0.dtd"
   xmlns:inkscape="http://www.inkscape.org/namespaces/inkscape"
   width="210mm"
   height="297mm"
   viewBox="0 0 210 297"
   version="1.1"
   id="svg831"
   inkscape:version="0.92.3 (2405546, 2018-03-11)"
   sodipodi:docname="character2.svg">
  <defs
     id="defs825" />
  <sodipodi:namedview
     id="base"
     pagecolor="#ffffff"
     bordercolor="#666666"
     borderopacity="1.0"
     inkscape:pageopacity="0.0"
     inkscape:pageshadow="2"
     inkscape:zoom="0.24748737"
     inkscape:cx="-359.2534"
     inkscape:cy="639.5742"
     inkscape:document-units="mm"
     inkscape:current-layer="layer1"
     showgrid="false"
     inkscape:window-width="1920"
     inkscape:window-height="1017"
     inkscape:window-x="-8"
     inkscape:window-y="-8"
     inkscape:window-maximized="1" />
  <metadata
     id="metadata828">
    <rdf:RDF>
      <cc:Work
         rdf:about="">
        <dc:format>image/svg+xml</dc:format>
        <dc:type
           rdf:resource="http://purl.org/dc/dcmitype/StillImage" />
        <dc:title></dc:title>
      </cc:Work>
    </rdf:RDF>
  </metadata>
  <g
     inkscape:label="Ebene 1"
     inkscape:groupmode="layer"
     id="layer1">
    <g
       id="g1387"
       transform="matrix(21.548817,0,0,19.32127,-1854.7337,-2278.8527)"
       style="fill:#e85a4f;fill-opacity:1;opacity:1;stroke:none;stroke-opacity:1">
      <path
         style="fill:#e85a4f;fill-opacity:1;stroke-width:0.09671428;stroke:none;stroke-opacity:1"
         d="m 87.075537,129.5836 c -0.190253,-0.20971 -0.207635,-0.51026 -0.03922,-0.6781 0.09112,-0.0908 0.121044,-0.79417 0.121044,-2.84469 0,-1.49824 -0.03074,-2.86109 -0.06831,-3.02857 l -0.06831,-0.3045 0.746158,0.0487 c 0.545452,0.0356 1.143157,-0.0189 2.222064,-0.20262 2.041227,-0.34751 2.957159,-0.32634 2.806665,0.0649 -0.06927,0.18007 -0.314881,0.22182 -2.394293,0.40697 -0.932035,0.083 -1.92338,0.1747 -2.202991,0.20381 l -0.508382,0.0529 v 2.84016 2.84015 l 0.266295,-0.045 c 0.375547,-0.0634 2.551364,-0.2246 4.046013,-0.29979 1.080891,-0.0544 1.307591,-0.04 1.579586,0.10034 0.20271,0.10456 0.306205,0.22269 0.286143,0.32661 -0.0283,0.14658 -0.248373,0.16372 -2.209012,0.17208 -2.201765,0.009 -3.497135,0.13499 -3.984427,0.38635 -0.343196,0.17703 -0.406174,0.17286 -0.599016,-0.0397 z m 1.195426,-1.0379 c 0,-0.0305 0.247249,-0.28041 0.549442,-0.55541 0.531354,-0.48354 1.096749,-1.24154 1.096749,-1.47035 0,-0.0782 -0.210681,-0.098 -0.704969,-0.0663 -0.55546,0.0356 -0.731103,0.0137 -0.828194,-0.10298 -0.149193,-0.17932 -0.09795,-0.19845 0.976363,-0.36459 l 0.750469,-0.11605 v -0.51801 c 0,-0.49239 -0.01236,-0.51802 -0.249731,-0.51802 -0.166866,0 -0.394325,0.14424 -0.685488,0.43467 -0.710892,0.70913 -0.830807,0.55015 -0.240793,-0.31923 0.526427,-0.77568 0.715957,-1.17213 0.660848,-1.38235 -0.06848,-0.26123 0.07844,-0.30903 0.415486,-0.13517 0.348983,0.18002 0.358618,0.2597 0.08484,0.70158 -0.196776,0.3176 -0.198139,0.33357 -0.02421,0.28372 0.875018,-0.25076 1.722079,-0.37024 1.935915,-0.27305 0.488694,0.22211 0.204745,0.43922 -0.710639,0.54335 -0.599403,0.0682 -0.60523,0.0718 -0.606539,0.3733 -7.27e-4,0.16745 -0.02545,0.39406 -0.05494,0.50358 -0.05316,0.19742 -0.0465,0.19795 0.777568,0.062 0.891212,-0.14704 1.505891,-0.0964 1.505891,0.12394 0,0.20482 -0.093,0.23379 -1.300804,0.40517 -0.806342,0.11442 -1.120065,0.196 -1.120065,0.29128 0,0.27616 -0.484619,1.06978 -0.859626,1.40774 -0.52535,0.47344 -1.367573,0.89915 -1.367573,0.69124 z m 3.620391,-0.70163 c -0.823444,-0.65755 -1.249773,-1.05706 -1.191661,-1.11668 0.09653,-0.099 1.469797,0.4147 1.709843,0.63965 0.238724,0.22371 0.27899,0.74909 0.06283,0.81974 -0.05926,0.0194 -0.320714,-0.13485 -0.581009,-0.34271 z"
         id="path1411"
         inkscape:connector-curvature="0" />
      <path
         style="fill:#e85a4f;fill-opacity:1;stroke-width:0.09671428;stroke:none;stroke-opacity:1"
         d="m 87.08093,129.58954 c -0.195101,-0.21504 -0.214635,-0.51459 -0.04461,-0.68405 0.09121,-0.0909 0.121044,-0.80384 0.121044,-2.89298 0,-1.5248 -0.03247,-2.88777 -0.07216,-3.02883 l -0.07216,-0.25647 0.750008,0.0492 c 0.545943,0.0358 1.165837,-0.0192 2.278321,-0.20235 2.087738,-0.34367 2.904143,-0.32507 2.754952,0.0628 -0.06796,0.17665 -0.275141,0.20924 -2.591267,0.40754 -1.037117,0.0888 -2.027288,0.18201 -2.20038,0.20714 l -0.314713,0.0457 v 2.85107 2.85106 l 0.411547,-0.0548 c 0.600154,-0.0799 2.545893,-0.22726 3.998634,-0.3028 1.247269,-0.0648 1.26652,-0.0627 1.540664,0.17253 0.465569,0.39947 0.272886,0.49651 -0.806659,0.40626 -1.474705,-0.12328 -4.176759,0.0502 -4.902099,0.31469 -0.213037,0.0777 -0.454416,0.16278 -0.536399,0.18909 -0.08198,0.0263 -0.223604,-0.0343 -0.314713,-0.13475 z m 1.778163,-1.60055 c 0.342527,-0.33668 0.746656,-0.83918 0.898065,-1.11667 l 0.275289,-0.50454 -0.584717,0.066 c -0.609403,0.0688 -1.079932,0.005 -1.079932,-0.14624 0,-0.10974 0.156732,-0.15431 1.040974,-0.296 l 0.702051,-0.1125 v -0.52254 c 0,-0.50068 -0.01072,-0.52254 -0.256253,-0.52254 -0.17097,0 -0.414783,0.14792 -0.732594,0.44445 -0.261988,0.24445 -0.501885,0.41898 -0.533104,0.38784 -0.03122,-0.0311 0.09706,-0.28772 0.285061,-0.57017 0.510769,-0.76736 0.774701,-1.32696 0.721524,-1.5298 -0.06579,-0.25094 0.02997,-0.28218 0.395282,-0.12896 0.370381,0.15534 0.383718,0.24668 0.102338,0.70083 l -0.211415,0.34123 0.235624,-0.0622 c 1.058647,-0.27958 1.617246,-0.35969 1.861709,-0.26697 0.535941,0.20326 0.221004,0.4362 -0.730363,0.54021 -0.431742,0.0472 -0.55704,0.0973 -0.557866,0.22297 -5.91e-4,0.0892 -0.02673,0.31682 -0.0581,0.50594 l -0.05703,0.34385 0.912298,-0.13069 c 0.658919,-0.0944 0.986529,-0.10254 1.179569,-0.0293 0.584215,0.22157 0.05792,0.42812 -1.591345,0.62456 -0.534531,0.0637 -0.535931,0.0647 -0.698277,0.52067 -0.212979,0.59817 -0.749871,1.21306 -1.36793,1.56667 -0.778169,0.4452 -0.827356,0.3389 -0.150857,-0.32603 z m 2.893469,-0.27681 c -0.333568,-0.28142 -0.719586,-0.60558 -0.857817,-0.72035 -0.138232,-0.11478 -0.229543,-0.22973 -0.202913,-0.25545 0.08529,-0.0824 1.213728,0.30815 1.556835,0.5388 0.267836,0.18004 0.331442,0.2854 0.331442,0.54898 0,0.1794 -0.04974,0.34272 -0.11053,0.36294 -0.06079,0.0202 -0.38345,-0.1935 -0.717017,-0.47492 z"
         id="path1409"
         inkscape:connector-curvature="0" />
      <path
         style="fill:#e85a4f;fill-opacity:1;stroke-width:0.09671428;stroke:none;stroke-opacity:1"
         d="m 87.08093,129.58954 c -0.195101,-0.21504 -0.214635,-0.51459 -0.04461,-0.68405 0.09121,-0.0909 0.121044,-0.80384 0.121044,-2.89298 0,-1.5248 -0.03247,-2.88777 -0.07216,-3.02883 l -0.07216,-0.25647 0.750008,0.0492 c 0.545943,0.0358 1.165837,-0.0192 2.278321,-0.20235 2.087738,-0.34367 2.904143,-0.32507 2.754952,0.0628 -0.06796,0.17665 -0.275141,0.20924 -2.591267,0.40754 -1.037117,0.0888 -2.027288,0.18201 -2.20038,0.20714 l -0.314713,0.0457 v 2.85107 2.85106 l 0.411547,-0.0548 c 0.600154,-0.0799 2.545893,-0.22726 3.998634,-0.3028 1.247269,-0.0648 1.26652,-0.0627 1.540664,0.17253 0.465569,0.39947 0.272886,0.49651 -0.806659,0.40626 -1.474705,-0.12328 -4.176759,0.0502 -4.902099,0.31469 -0.213037,0.0777 -0.454416,0.16278 -0.536399,0.18909 -0.08198,0.0263 -0.223604,-0.0343 -0.314713,-0.13475 z m 1.778163,-1.60055 c 0.342527,-0.33668 0.746656,-0.83918 0.898065,-1.11667 l 0.275289,-0.50454 -0.584717,0.066 c -0.609403,0.0688 -1.079932,0.005 -1.079932,-0.14624 0,-0.10974 0.156732,-0.15431 1.040974,-0.296 l 0.702051,-0.1125 v -0.52254 c 0,-0.50068 -0.01072,-0.52254 -0.256253,-0.52254 -0.17097,0 -0.414783,0.14792 -0.732594,0.44445 -0.261988,0.24445 -0.501885,0.41898 -0.533104,0.38784 -0.03122,-0.0311 0.09706,-0.28772 0.285061,-0.57017 0.510769,-0.76736 0.774701,-1.32696 0.721524,-1.5298 -0.06579,-0.25094 0.02997,-0.28218 0.395282,-0.12896 0.370381,0.15534 0.383718,0.24668 0.102338,0.70083 l -0.211415,0.34123 0.235624,-0.0622 c 1.058647,-0.27958 1.617246,-0.35969 1.861709,-0.26697 0.535941,0.20326 0.221004,0.4362 -0.730363,0.54021 -0.431742,0.0472 -0.55704,0.0973 -0.557866,0.22297 -5.91e-4,0.0892 -0.02673,0.31682 -0.0581,0.50594 l -0.05703,0.34385 0.912298,-0.13069 c 0.658919,-0.0944 0.986529,-0.10254 1.179569,-0.0293 0.584215,0.22157 0.05792,0.42812 -1.591345,0.62456 -0.534531,0.0637 -0.535931,0.0647 -0.698277,0.52067 -0.212979,0.59817 -0.749871,1.21306 -1.36793,1.56667 -0.778169,0.4452 -0.827356,0.3389 -0.150857,-0.32603 z m 2.893469,-0.27681 c -0.333568,-0.28142 -0.719586,-0.60558 -0.857817,-0.72035 -0.138232,-0.11478 -0.229543,-0.22973 -0.202913,-0.25545 0.08529,-0.0824 1.213728,0.30815 1.556835,0.5388 0.267836,0.18004 0.331442,0.2854 0.331442,0.54898 0,0.1794 -0.04974,0.34272 -0.11053,0.36294 -0.06079,0.0202 -0.38345,-0.1935 -0.717017,-0.47492 z"
         id="path1407"
         inkscape:connector-curvature="0" />
      <path
         style="fill:#e85a4f;fill-opacity:1;stroke-width:0.09671428;stroke:none;stroke-opacity:1"
         d="m 87.067222,129.57443 c -0.172195,-0.1898 -0.172699,-0.21882 -0.0126,-0.72657 0.145217,-0.46053 0.162629,-0.88822 0.134751,-3.30978 l -0.03201,-2.7809 0.72626,0.0327 c 0.469084,0.0211 1.267454,-0.0558 2.254574,-0.21734 1.996217,-0.32661 2.683998,-0.32762 2.683998,-0.004 0,0.0709 -0.0378,0.15216 -0.084,0.18064 -0.084,0.0518 -3.601966,0.41327 -4.515654,0.464 l -0.484174,0.0269 -0.02567,2.88625 -0.02567,2.88625 0.364591,-0.0568 c 0.756157,-0.11775 4.918495,-0.3667 5.212153,-0.31175 0.168579,0.0316 0.387015,0.1461 0.485412,0.25455 0.15324,0.16891 0.15862,0.21 0.0375,0.28642 -0.177168,0.11178 -0.438324,0.11045 -1.344379,-0.007 -0.872642,-0.11298 -3.867039,0.12013 -4.493027,0.34978 -0.222521,0.0816 -0.471661,0.16995 -0.553644,0.19626 -0.08198,0.0263 -0.229772,-0.0411 -0.328421,-0.14986 z m 1.701944,-1.48278 c 0.604314,-0.55805 0.984476,-1.04171 1.140452,-1.45094 l 0.102586,-0.26915 -0.701159,0.0572 c -0.428961,0.035 -0.757549,0.0178 -0.846412,-0.0443 -0.213092,-0.14898 -2.35e-4,-0.25676 0.659901,-0.33415 0.998688,-0.11709 0.986289,-0.10834 0.986289,-0.69551 0,-0.4988 -0.01082,-0.5208 -0.256253,-0.5208 -0.17097,0 -0.414783,0.14792 -0.732594,0.44445 -0.261988,0.24445 -0.501474,0.41939 -0.532191,0.38875 -0.03072,-0.0306 0.170058,-0.39896 0.446168,-0.81848 0.276111,-0.41952 0.527673,-0.92046 0.559028,-1.1132 0.05968,-0.36682 0.188485,-0.42859 0.522208,-0.25044 0.238848,0.12751 0.23571,0.23705 -0.01693,0.59097 -0.112329,0.15736 -0.182815,0.30747 -0.156636,0.33358 0.02618,0.0261 0.338665,-0.0199 0.694415,-0.10215 0.728888,-0.16862 1.46626,-0.19584 1.552102,-0.0573 0.09472,0.15288 -0.352221,0.36409 -0.895399,0.42314 -0.280879,0.0305 -0.553227,0.0817 -0.605217,0.1138 -0.05199,0.032 -0.09453,0.27031 -0.09453,0.52947 v 0.4712 l 0.36313,-0.0664 c 0.199722,-0.0365 0.711736,-0.0664 1.137809,-0.0664 0.617252,0 0.774678,0.0289 0.774678,0.14209 0,0.13688 -0.405215,0.22935 -1.890705,0.43147 -0.424034,0.0577 -0.443858,0.0756 -0.613932,0.55322 -0.202238,0.568 -0.885453,1.30628 -1.496716,1.61735 -0.648136,0.32983 -0.68098,0.22894 -0.100095,-0.30748 z m 3.223322,-0.19178 c -0.664955,-0.5283 -1.332678,-1.13446 -1.291413,-1.17234 0.06617,-0.0607 1.292817,0.36741 1.568131,0.54735 0.270081,0.17653 0.42047,0.54498 0.324386,0.79475 -0.07906,0.20552 -0.156162,0.18375 -0.601104,-0.16976 z"
         id="path1405"
         inkscape:connector-curvature="0" />
      <path
         style="fill:#e85a4f;fill-opacity:1;stroke-width:0.09671428;stroke:none;stroke-opacity:1"
         d="m 87.067222,129.57443 c -0.172195,-0.1898 -0.172699,-0.21882 -0.0126,-0.72657 0.145217,-0.46053 0.162629,-0.88822 0.134751,-3.30978 l -0.03201,-2.7809 0.72626,0.0327 c 0.469084,0.0211 1.267454,-0.0558 2.254574,-0.21734 1.996217,-0.32661 2.683998,-0.32762 2.683998,-0.004 0,0.0709 -0.0378,0.15216 -0.084,0.18064 -0.084,0.0518 -3.601966,0.41327 -4.515654,0.464 l -0.484174,0.0269 -0.02567,2.88625 -0.02567,2.88625 0.364591,-0.0568 c 0.756157,-0.11775 4.918495,-0.3667 5.212153,-0.31175 0.168579,0.0316 0.387015,0.1461 0.485412,0.25455 0.15324,0.16891 0.15862,0.21 0.0375,0.28642 -0.177168,0.11178 -0.438324,0.11045 -1.344379,-0.007 -0.872642,-0.11298 -3.867039,0.12013 -4.493027,0.34978 -0.222521,0.0816 -0.471661,0.16995 -0.553644,0.19626 -0.08198,0.0263 -0.229772,-0.0411 -0.328421,-0.14986 z m 1.701944,-1.48278 c 0.604314,-0.55805 0.984476,-1.04171 1.140452,-1.45094 l 0.102586,-0.26915 -0.701159,0.0572 c -0.428961,0.035 -0.757549,0.0178 -0.846412,-0.0443 -0.213092,-0.14898 -2.35e-4,-0.25676 0.659901,-0.33415 0.998688,-0.11709 0.986289,-0.10834 0.986289,-0.69551 0,-0.4988 -0.01082,-0.5208 -0.256253,-0.5208 -0.17097,0 -0.414783,0.14792 -0.732594,0.44445 -0.261988,0.24445 -0.501474,0.41939 -0.532191,0.38875 -0.03072,-0.0306 0.170058,-0.39896 0.446168,-0.81848 0.276111,-0.41952 0.527673,-0.92046 0.559028,-1.1132 0.05968,-0.36682 0.188485,-0.42859 0.522208,-0.25044 0.238848,0.12751 0.23571,0.23705 -0.01693,0.59097 -0.112329,0.15736 -0.182815,0.30747 -0.156636,0.33358 0.02618,0.0261 0.338665,-0.0199 0.694415,-0.10215 0.728888,-0.16862 1.46626,-0.19584 1.552102,-0.0573 0.09472,0.15288 -0.352221,0.36409 -0.895399,0.42314 -0.280879,0.0305 -0.553227,0.0817 -0.605217,0.1138 -0.05199,0.032 -0.09453,0.27031 -0.09453,0.52947 v 0.4712 l 0.36313,-0.0664 c 0.199722,-0.0365 0.711736,-0.0664 1.137809,-0.0664 0.617252,0 0.774678,0.0289 0.774678,0.14209 0,0.13688 -0.405215,0.22935 -1.890705,0.43147 -0.424034,0.0577 -0.443858,0.0756 -0.613932,0.55322 -0.202238,0.568 -0.885453,1.30628 -1.496716,1.61735 -0.648136,0.32983 -0.68098,0.22894 -0.100095,-0.30748 z m 3.223322,-0.19178 c -0.664955,-0.5283 -1.332678,-1.13446 -1.291413,-1.17234 0.06617,-0.0607 1.292817,0.36741 1.568131,0.54735 0.270081,0.17653 0.42047,0.54498 0.324386,0.79475 -0.07906,0.20552 -0.156162,0.18375 -0.601104,-0.16976 z"
         id="path1403"
         inkscape:connector-curvature="0" />
      <path
         style="fill:#e85a4f;fill-opacity:1;stroke-width:0.09671428;stroke:none;stroke-opacity:1"
         d="m 87.0454,129.50928 c -0.140803,-0.21436 -0.146015,-0.28103 -0.03574,-0.45718 0.268974,-0.42962 0.359492,-4.5656 0.131101,-5.99032 -0.05805,-0.36213 -0.05221,-0.37221 0.171923,-0.29662 0.370578,0.12498 1.429946,0.0522 2.96775,-0.204 0.785488,-0.13084 1.594433,-0.23807 1.797656,-0.23827 0.575537,-5.9e-4 0.967455,0.27983 0.591969,0.42356 -0.205589,0.0787 -3.91772,0.4454 -4.508757,0.4454 h -0.47135 l -0.01937,2.51145 c -0.01065,1.38129 -0.02155,2.67444 -0.02421,2.87367 l -0.0048,0.36223 0.435757,-0.0135 c 0.239666,-0.007 1.493153,-0.0871 2.785527,-0.17704 2.269918,-0.15796 2.360149,-0.15747 2.655181,0.0144 0.690095,0.40203 0.300097,0.5711 -0.957752,0.41518 -1.263704,-0.15664 -4.458802,0.12954 -4.939514,0.44243 -0.297882,0.19388 -0.386037,0.17682 -0.575336,-0.11137 z m 1.723766,-1.409 c 0.611869,-0.57469 0.986316,-1.05517 1.143316,-1.46708 l 0.105452,-0.27667 -0.628614,0.0671 c -0.635603,0.0679 -1.021522,0.0139 -1.021522,-0.14295 0,-0.0471 0.163409,-0.11245 0.36313,-0.14514 0.199722,-0.0327 0.591903,-0.10294 0.871513,-0.15611 l 0.508382,-0.0967 v -0.52442 c 0,-0.50272 -0.0106,-0.52442 -0.256253,-0.52442 -0.17097,0 -0.414783,0.14792 -0.732594,0.44445 -0.261988,0.24445 -0.496267,0.42458 -0.52062,0.40029 -0.02435,-0.0243 0.196375,-0.42653 0.490507,-0.89387 0.323846,-0.51454 0.534787,-0.95818 0.534787,-1.12474 0,-0.30996 0.220896,-0.36944 0.531279,-0.14305 0.175591,0.12808 0.174588,0.14276 -0.03384,0.49514 -0.118141,0.19974 -0.192813,0.38509 -0.165939,0.4119 0.02688,0.0268 0.331736,-0.0221 0.677471,-0.10877 0.345734,-0.0866 0.829832,-0.15751 1.075772,-0.15751 0.371711,0 0.441723,0.0282 0.414915,0.16705 -0.0348,0.18026 -0.243781,0.26029 -0.998716,0.38246 l -0.484173,0.0784 -0.02971,0.51982 c -0.02872,0.50251 -0.02227,0.51768 0.193669,0.45541 0.122859,-0.0354 0.620159,-0.0906 1.10511,-0.12265 0.653477,-0.0432 0.901097,-0.027 0.956545,0.0625 0.114318,0.18451 -0.100789,0.26705 -1.008808,0.38711 -1.346043,0.17796 -1.312407,0.16499 -1.454495,0.56095 -0.289744,0.80742 -1.213821,1.71286 -1.941092,1.90194 -0.191641,0.0498 -0.128183,-0.044 0.304533,-0.45046 z m 2.868371,-0.50689 c -0.876037,-0.74562 -0.982495,-0.88196 -0.617282,-0.79052 0.660313,0.16531 1.337124,0.4822 1.47357,0.68992 0.161124,0.2453 0.151314,0.6372 -0.01733,0.69249 -0.05699,0.0187 -0.43452,-0.24767 -0.838956,-0.59189 z"
         id="path1401"
         inkscape:connector-curvature="0" />
      <path
         style="fill:#e85a4f;fill-opacity:1;stroke-width:0.09671428;stroke:none;stroke-opacity:1"
         d="m 87.0454,129.50928 c -0.140803,-0.21436 -0.146015,-0.28103 -0.03574,-0.45718 0.268974,-0.42962 0.359492,-4.5656 0.131101,-5.99032 -0.05805,-0.36213 -0.05221,-0.37221 0.171923,-0.29662 0.370578,0.12498 1.429946,0.0522 2.96775,-0.204 0.785488,-0.13084 1.594433,-0.23807 1.797656,-0.23827 0.575537,-5.9e-4 0.967455,0.27983 0.591969,0.42356 -0.205589,0.0787 -3.91772,0.4454 -4.508757,0.4454 h -0.47135 l -0.01937,2.51145 c -0.01065,1.38129 -0.02155,2.67444 -0.02421,2.87367 l -0.0048,0.36223 0.435757,-0.0135 c 0.239666,-0.007 1.493153,-0.0871 2.785527,-0.17704 2.269918,-0.15796 2.360149,-0.15747 2.655181,0.0144 0.690095,0.40203 0.300097,0.5711 -0.957752,0.41518 -1.263704,-0.15664 -4.458802,0.12954 -4.939514,0.44243 -0.297882,0.19388 -0.386037,0.17682 -0.575336,-0.11137 z m 1.723766,-1.409 c 0.611869,-0.57469 0.986316,-1.05517 1.143316,-1.46708 l 0.105452,-0.27667 -0.628614,0.0671 c -0.635603,0.0679 -1.021522,0.0139 -1.021522,-0.14295 0,-0.0471 0.163409,-0.11245 0.36313,-0.14514 0.199722,-0.0327 0.591903,-0.10294 0.871513,-0.15611 l 0.508382,-0.0967 v -0.52442 c 0,-0.50272 -0.0106,-0.52442 -0.256253,-0.52442 -0.17097,0 -0.414783,0.14792 -0.732594,0.44445 -0.261988,0.24445 -0.496267,0.42458 -0.52062,0.40029 -0.02435,-0.0243 0.196375,-0.42653 0.490507,-0.89387 0.323846,-0.51454 0.534787,-0.95818 0.534787,-1.12474 0,-0.30996 0.220896,-0.36944 0.531279,-0.14305 0.175591,0.12808 0.174588,0.14276 -0.03384,0.49514 -0.118141,0.19974 -0.192813,0.38509 -0.165939,0.4119 0.02688,0.0268 0.331736,-0.0221 0.677471,-0.10877 0.345734,-0.0866 0.829832,-0.15751 1.075772,-0.15751 0.371711,0 0.441723,0.0282 0.414915,0.16705 -0.0348,0.18026 -0.243781,0.26029 -0.998716,0.38246 l -0.484173,0.0784 -0.02971,0.51982 c -0.02872,0.50251 -0.02227,0.51768 0.193669,0.45541 0.122859,-0.0354 0.620159,-0.0906 1.10511,-0.12265 0.653477,-0.0432 0.901097,-0.027 0.956545,0.0625 0.114318,0.18451 -0.100789,0.26705 -1.008808,0.38711 -1.346043,0.17796 -1.312407,0.16499 -1.454495,0.56095 -0.289744,0.80742 -1.213821,1.71286 -1.941092,1.90194 -0.191641,0.0498 -0.128183,-0.044 0.304533,-0.45046 z m 2.868371,-0.50689 c -0.876037,-0.74562 -0.982495,-0.88196 -0.617282,-0.79052 0.660313,0.16531 1.337124,0.4822 1.47357,0.68992 0.161124,0.2453 0.151314,0.6372 -0.01733,0.69249 -0.05699,0.0187 -0.43452,-0.24767 -0.838956,-0.59189 z"
         id="path1399"
         inkscape:connector-curvature="0" />
      <path
         style="fill:#e85a4f;fill-opacity:1;stroke-width:0.09671428;stroke:none;stroke-opacity:1"
         d="m 87.051684,129.51885 c -0.147617,-0.22473 -0.146651,-0.2664 0.01399,-0.60371 0.150461,-0.31593 0.173575,-0.6715 0.180538,-2.77717 0.0044,-1.32817 -0.02561,-2.63864 -0.06667,-2.91216 l -0.07466,-0.4973 0.395776,0.0887 c 0.428519,0.096 1.313159,0.0105 3.17547,-0.30709 1.289601,-0.21992 1.754468,-0.23435 1.991048,-0.0618 0.141592,0.10328 0.149247,0.14463 0.04272,0.23077 -0.124982,0.10106 -2.264037,0.34963 -4.124221,0.47926 l -0.895721,0.0624 -0.02075,2.30379 c -0.01141,1.26709 -0.02231,2.55373 -0.02421,2.85921 l -0.0035,0.55542 0.532592,-0.0141 c 0.292925,-0.008 1.53159,-0.0837 2.752589,-0.16889 2.099313,-0.14639 2.238527,-0.14562 2.560847,0.0141 0.762662,0.37789 0.377671,0.52823 -0.992116,0.38741 -1.218528,-0.12528 -4.133956,0.12443 -4.779742,0.40939 -0.24074,0.10622 -0.452954,0.19313 -0.471586,0.19313 -0.01863,0 -0.105228,-0.10862 -0.192437,-0.24139 z m 1.876651,-1.56974 c 0.566503,-0.54929 1.085654,-1.28092 1.085654,-1.52999 0,-0.0356 -0.29451,-0.0357 -0.654467,-3e-4 -0.492799,0.0484 -0.700722,0.0306 -0.841718,-0.0722 -0.170716,-0.12452 -0.123608,-0.1468 0.533423,-0.25221 1.116481,-0.17914 1.059596,-0.13964 1.059596,-0.73565 0,-0.50089 -0.01147,-0.52476 -0.252067,-0.52476 -0.162617,0 -0.42512,0.1552 -0.739717,0.43735 -0.268208,0.24054 -0.507287,0.41776 -0.531287,0.39382 -0.024,-0.0239 0.128272,-0.29682 0.338383,-0.60639 0.518022,-0.76324 0.700515,-1.1351 0.700515,-1.42741 0,-0.29043 0.17924,-0.31882 0.47986,-0.076 l 0.210811,0.17028 -0.245583,0.36099 c -0.288543,0.42413 -0.262557,0.43173 0.716637,0.20957 0.778355,-0.17659 1.307561,-0.15587 1.307561,0.0512 0,0.15074 -0.299411,0.24955 -1.040974,0.34353 l -0.459965,0.0583 v 0.53661 c 0,0.53605 2.81e-4,0.53655 0.266296,0.47451 0.607231,-0.14161 1.932841,-0.18045 2.008188,-0.0588 0.114208,0.18433 -0.08684,0.25705 -1.049691,0.37969 -1.324878,0.16875 -1.259095,0.13697 -1.50401,0.72641 -0.26031,0.62648 -0.838578,1.23602 -1.480378,1.56044 -0.253641,0.12821 -0.487794,0.23311 -0.520339,0.23311 -0.03254,0 0.243428,-0.29341 0.613272,-0.65201 z m 2.594205,-0.46778 c -0.411511,-0.35024 -0.725974,-0.65898 -0.698806,-0.68608 0.09631,-0.0961 1.306908,0.37043 1.553935,0.59879 0.300583,0.27788 0.344931,0.72411 0.07197,0.72411 -0.09839,0 -0.515583,-0.28657 -0.927094,-0.63682 z"
         id="path1397"
         inkscape:connector-curvature="0" />
      <path
         style="fill:#e85a4f;fill-opacity:1;stroke-width:0.09671428;stroke:none;stroke-opacity:1"
         d="m 87.105171,129.56329 c -0.231841,-0.23126 -0.235637,-0.31977 -0.02732,-0.63691 0.141039,-0.21472 0.163488,-0.57576 0.169461,-2.72538 0.0038,-1.36284 -0.02687,-2.70287 -0.06813,-2.97787 l -0.07501,-0.49999 0.35778,0.0985 c 0.406472,0.11196 0.801708,0.0763 3.01305,-0.27218 1.498627,-0.23613 2.16713,-0.24628 2.298092,-0.0349 0.02999,0.0484 -0.02295,0.12869 -0.117646,0.17842 -0.162524,0.0853 -2.248804,0.31888 -4.118189,0.461 l -0.847304,0.0644 v 1.56525 c 0,0.86088 -0.02886,2.16547 -0.06413,2.89909 l -0.06413,1.33384 0.814599,-0.0646 c 4.154759,-0.32962 4.917335,-0.34811 5.255073,-0.12736 0.140806,0.092 0.25601,0.20603 0.25601,0.25333 0,0.0477 -0.851201,0.0814 -1.912486,0.0756 -2.139074,-0.0116 -3.620605,0.13176 -4.255278,0.41181 -0.420747,0.18565 -0.426249,0.18564 -0.614443,-0.002 z m 1.262627,-1.01562 c 0,-0.0316 0.243046,-0.27895 0.540102,-0.54977 0.492184,-0.44871 1.102938,-1.32064 1.10518,-1.57779 6.29e-4,-0.0725 -0.190303,-0.0787 -0.627567,-0.0202 -0.459741,0.0614 -0.687228,0.0514 -0.847304,-0.0374 -0.198882,-0.11033 -0.148216,-0.13334 0.55585,-0.25238 0.426072,-0.072 0.823041,-0.14588 0.882152,-0.16407 0.113978,-0.0351 0.273646,-0.9658 0.189097,-1.10227 -0.08908,-0.14377 -0.579862,0.008 -0.87758,0.27073 -0.159777,0.1412 -0.39489,0.34232 -0.522473,0.44692 l -0.231968,0.1902 0.125256,-0.24148 c 0.06889,-0.13282 0.243571,-0.41536 0.388178,-0.62786 0.419789,-0.6169 0.679673,-1.18406 0.617096,-1.34673 -0.07912,-0.20568 0.177605,-0.19482 0.438812,0.0186 l 0.20693,0.16904 -0.248111,0.36223 c -0.233878,0.34145 -0.237145,0.36223 -0.05696,0.36223 0.105133,0 0.483,-0.0675 0.839703,-0.15004 0.758352,-0.17544 1.251744,-0.15558 1.251744,0.0504 0,0.13636 -0.108245,0.16855 -1.137809,0.33831 l -0.36313,0.0599 v 0.53815 c 0,0.53704 5.52e-4,0.53803 0.266296,0.47893 0.627467,-0.13953 1.933004,-0.18307 2.005005,-0.0669 0.03967,0.064 0.04913,0.13935 0.02102,0.16739 -0.02811,0.028 -0.556418,0.12761 -1.174026,0.22127 -0.617607,0.0937 -1.138615,0.18736 -1.157795,0.20823 -0.01918,0.0209 -0.131766,0.26457 -0.25019,0.54156 -0.241044,0.56379 -0.913286,1.24904 -1.536419,1.56615 -0.220601,0.11226 -0.401093,0.17829 -0.401093,0.14674 z m 3.171338,-1.06301 c -0.412758,-0.34736 -0.750469,-0.65203 -0.750469,-0.67704 0,-0.0808 0.518497,0.0713 1.081688,0.31735 0.546055,0.23858 0.868206,0.64084 0.713367,0.89075 -0.118098,0.19061 -0.292218,0.10209 -1.044586,-0.53106 z"
         id="path1395"
         inkscape:connector-curvature="0" />
      <path
         style="fill:#e85a4f;fill-opacity:1;stroke-width:0.09671428;stroke:none;stroke-opacity:1"
         d="m 87.105171,129.56329 c -0.231841,-0.23126 -0.235637,-0.31977 -0.02732,-0.63691 0.141039,-0.21472 0.163488,-0.57576 0.169461,-2.72538 0.0038,-1.36284 -0.02687,-2.70287 -0.06813,-2.97787 l -0.07501,-0.49999 0.35778,0.0985 c 0.406472,0.11196 0.801708,0.0763 3.01305,-0.27218 1.498627,-0.23613 2.16713,-0.24628 2.298092,-0.0349 0.02999,0.0484 -0.02295,0.12869 -0.117646,0.17842 -0.162524,0.0853 -2.248804,0.31888 -4.118189,0.461 l -0.847304,0.0644 v 1.56525 c 0,0.86088 -0.02886,2.16547 -0.06413,2.89909 l -0.06413,1.33384 0.814599,-0.0646 c 4.154759,-0.32962 4.917335,-0.34811 5.255073,-0.12736 0.140806,0.092 0.25601,0.20603 0.25601,0.25333 0,0.0477 -0.851201,0.0814 -1.912486,0.0756 -2.139074,-0.0116 -3.620605,0.13176 -4.255278,0.41181 -0.420747,0.18565 -0.426249,0.18564 -0.614443,-0.002 z m 1.262627,-1.01562 c 0,-0.0316 0.243046,-0.27895 0.540102,-0.54977 0.492184,-0.44871 1.102938,-1.32064 1.10518,-1.57779 6.29e-4,-0.0725 -0.190303,-0.0787 -0.627567,-0.0202 -0.459741,0.0614 -0.687228,0.0514 -0.847304,-0.0374 -0.198882,-0.11033 -0.148216,-0.13334 0.55585,-0.25238 0.426072,-0.072 0.823041,-0.14588 0.882152,-0.16407 0.113978,-0.0351 0.273646,-0.9658 0.189097,-1.10227 -0.08908,-0.14377 -0.579862,0.008 -0.87758,0.27073 -0.159777,0.1412 -0.39489,0.34232 -0.522473,0.44692 l -0.231968,0.1902 0.125256,-0.24148 c 0.06889,-0.13282 0.243571,-0.41536 0.388178,-0.62786 0.419789,-0.6169 0.679673,-1.18406 0.617096,-1.34673 -0.07912,-0.20568 0.177605,-0.19482 0.438812,0.0186 l 0.20693,0.16904 -0.248111,0.36223 c -0.233878,0.34145 -0.237145,0.36223 -0.05696,0.36223 0.105133,0 0.483,-0.0675 0.839703,-0.15004 0.758352,-0.17544 1.251744,-0.15558 1.251744,0.0504 0,0.13636 -0.108245,0.16855 -1.137809,0.33831 l -0.36313,0.0599 v 0.53815 c 0,0.53704 5.52e-4,0.53803 0.266296,0.47893 0.627467,-0.13953 1.933004,-0.18307 2.005005,-0.0669 0.03967,0.064 0.04913,0.13935 0.02102,0.16739 -0.02811,0.028 -0.556418,0.12761 -1.174026,0.22127 -0.617607,0.0937 -1.138615,0.18736 -1.157795,0.20823 -0.01918,0.0209 -0.131766,0.26457 -0.25019,0.54156 -0.241044,0.56379 -0.913286,1.24904 -1.536419,1.56615 -0.220601,0.11226 -0.401093,0.17829 -0.401093,0.14674 z m 3.171338,-1.06301 c -0.412758,-0.34736 -0.750469,-0.65203 -0.750469,-0.67704 0,-0.0808 0.518497,0.0713 1.081688,0.31735 0.546055,0.23858 0.868206,0.64084 0.713367,0.89075 -0.118098,0.19061 -0.292218,0.10209 -1.044586,-0.53106 z"
         id="path1393"
         inkscape:connector-curvature="0" />
      <path
         style="fill:#e85a4f;fill-opacity:1;stroke-width:0.09671428;stroke:none;stroke-opacity:1"
         d="m 87.068497,129.47924 c -0.1586,-0.17481 -0.158245,-0.20118 0.0068,-0.50711 0.15514,-0.28752 0.174388,-0.60713 0.1765,-2.93075 0.0013,-1.43442 -0.02733,-2.73988 -0.06363,-2.90102 l -0.06601,-0.29299 0.889101,-0.002 c 0.513754,-0.001 1.561945,-0.11486 2.482901,-0.26939 1.612094,-0.27051 2.231171,-0.27314 2.231171,-0.009 0,0.0763 -0.09805,0.15991 -0.217878,0.18586 -0.221762,0.048 -2.580501,0.28258 -4.005061,0.39827 l -0.785306,0.0638 -0.07036,2.84599 c -0.0387,1.56529 -0.04644,2.86984 -0.01722,2.899 0.02923,0.0292 1.002546,-0.0182 2.162931,-0.10521 2.553952,-0.19153 3.596858,-0.19753 3.828609,-0.0221 0.379964,0.28772 0.171412,0.3255 -1.743026,0.31575 -1.993355,-0.0102 -3.64549,0.14114 -4.130354,0.37824 -0.370506,0.18117 -0.479077,0.17367 -0.679206,-0.0469 z m 1.840939,-1.48184 c 0.585749,-0.53305 1.104553,-1.25219 1.104553,-1.53107 0,-0.13686 -0.07037,-0.15742 -0.411548,-0.12022 -0.226351,0.0247 -0.492482,0.0611 -0.591401,0.0811 -0.09892,0.0199 -0.29501,-0.0108 -0.435756,-0.0683 -0.230779,-0.0942 -0.17034,-0.11966 0.615609,-0.2593 l 0.871513,-0.15484 0.08693,-0.44856 c 0.04781,-0.24671 0.05874,-0.52184 0.02429,-0.6114 -0.09882,-0.25688 -0.602002,-0.0911 -1.055197,0.34759 -0.215147,0.20827 -0.410595,0.35931 -0.434329,0.33563 -0.02373,-0.0237 0.138238,-0.30949 0.359936,-0.63514 0.475683,-0.69873 0.71244,-1.22617 0.637661,-1.42056 -0.04107,-0.10676 -0.0023,-0.12441 0.163438,-0.0745 0.392204,0.11818 0.423437,0.22268 0.19234,0.64353 -0.120002,0.21854 -0.20706,0.40593 -0.193463,0.41643 0.0136,0.0105 0.286176,-0.0393 0.605731,-0.11075 0.985799,-0.2203 1.562792,-0.26731 1.645354,-0.13405 0.102888,0.16606 -0.0978,0.26755 -0.672376,0.34004 -0.839534,0.1059 -0.827726,0.096 -0.827726,0.69469 v 0.5374 l 0.36313,-0.0637 c 0.804839,-0.14124 1.647481,-0.17713 1.825512,-0.0777 0.173237,0.0967 0.169886,0.10789 -0.05828,0.19432 -0.133147,0.0504 -0.656055,0.14659 -1.162016,0.21368 -0.505962,0.0671 -0.967348,0.15877 -1.025302,0.20373 -0.05795,0.045 -0.155075,0.24722 -0.215824,0.44948 -0.140039,0.46625 -0.706771,1.13014 -1.267617,1.48494 -0.684455,0.43298 -0.754001,0.32163 -0.145166,-0.23244 z m 2.629512,-0.52668 c -0.412861,-0.35207 -0.735934,-0.65481 -0.71794,-0.67275 0.05312,-0.053 1.147793,0.34386 1.396,0.50609 0.360827,0.23583 0.493087,0.82066 0.18328,0.81043 -0.06088,-0.002 -0.448478,-0.29171 -0.86134,-0.64377 z"
         id="path1391"
         inkscape:connector-curvature="0" />
      <path
         style="fill:#e85a4f;fill-opacity:1;stroke-width:0.09671428;stroke:none;stroke-opacity:1"
         d="m 87.068497,129.47924 c -0.1586,-0.17481 -0.158245,-0.20118 0.0068,-0.50711 0.15514,-0.28752 0.174388,-0.60713 0.1765,-2.93075 0.0013,-1.43442 -0.02733,-2.73988 -0.06363,-2.90102 l -0.06601,-0.29299 0.889101,-0.002 c 0.513754,-0.001 1.561945,-0.11486 2.482901,-0.26939 1.612094,-0.27051 2.231171,-0.27314 2.231171,-0.009 0,0.0763 -0.09805,0.15991 -0.217878,0.18586 -0.221762,0.048 -2.580501,0.28258 -4.005061,0.39827 l -0.785306,0.0638 -0.07036,2.84599 c -0.0387,1.56529 -0.04644,2.86984 -0.01722,2.899 0.02923,0.0292 1.002546,-0.0182 2.162931,-0.10521 2.553952,-0.19153 3.596858,-0.19753 3.828609,-0.0221 0.379964,0.28772 0.171412,0.3255 -1.743026,0.31575 -1.993355,-0.0102 -3.64549,0.14114 -4.130354,0.37824 -0.370506,0.18117 -0.479077,0.17367 -0.679206,-0.0469 z m 1.840939,-1.48184 c 0.585749,-0.53305 1.104553,-1.25219 1.104553,-1.53107 0,-0.13686 -0.07037,-0.15742 -0.411548,-0.12022 -0.226351,0.0247 -0.492482,0.0611 -0.591401,0.0811 -0.09892,0.0199 -0.29501,-0.0108 -0.435756,-0.0683 -0.230779,-0.0942 -0.17034,-0.11966 0.615609,-0.2593 l 0.871513,-0.15484 0.08693,-0.44856 c 0.04781,-0.24671 0.05874,-0.52184 0.02429,-0.6114 -0.09882,-0.25688 -0.602002,-0.0911 -1.055197,0.34759 -0.215147,0.20827 -0.410595,0.35931 -0.434329,0.33563 -0.02373,-0.0237 0.138238,-0.30949 0.359936,-0.63514 0.475683,-0.69873 0.71244,-1.22617 0.637661,-1.42056 -0.04107,-0.10676 -0.0023,-0.12441 0.163438,-0.0745 0.392204,0.11818 0.423437,0.22268 0.19234,0.64353 -0.120002,0.21854 -0.20706,0.40593 -0.193463,0.41643 0.0136,0.0105 0.286176,-0.0393 0.605731,-0.11075 0.985799,-0.2203 1.562792,-0.26731 1.645354,-0.13405 0.102888,0.16606 -0.0978,0.26755 -0.672376,0.34004 -0.839534,0.1059 -0.827726,0.096 -0.827726,0.69469 v 0.5374 l 0.36313,-0.0637 c 0.804839,-0.14124 1.647481,-0.17713 1.825512,-0.0777 0.173237,0.0967 0.169886,0.10789 -0.05828,0.19432 -0.133147,0.0504 -0.656055,0.14659 -1.162016,0.21368 -0.505962,0.0671 -0.967348,0.15877 -1.025302,0.20373 -0.05795,0.045 -0.155075,0.24722 -0.215824,0.44948 -0.140039,0.46625 -0.706771,1.13014 -1.267617,1.48494 -0.684455,0.43298 -0.754001,0.32163 -0.145166,-0.23244 z m 2.629512,-0.52668 c -0.412861,-0.35207 -0.735934,-0.65481 -0.71794,-0.67275 0.05312,-0.053 1.147793,0.34386 1.396,0.50609 0.360827,0.23583 0.493087,0.82066 0.18328,0.81043 -0.06088,-0.002 -0.448478,-0.29171 -0.86134,-0.64377 z"
         id="path1389"
         inkscape:connector-curvature="0" />
    </g>
  </g>
</svg>
