<svg xmlns="http://www.w3.org/2000/svg" viewBox="0 0 1000 1000"><g><path d=" M 500.128 302.254 C 695.319 302.254 853.337 518.937 853.337 518.937 C 853.337 518.937 695.319 734.05 500.128 734.05 C 304.917 734.05 146.762 518.937 146.762 518.937 C 154.239 514.384 312.404 297.711 500.128 302.254 Z  M 500.128 263 C 287.448 263 121.992 486.337 115.005 495.836 L 98.067 519.075 L 115.083 542.235 C 122.071 551.656 287.527 773.304 500.128 773.304 C 712.728 773.304 878.008 551.656 884.917 542.235 L 901.933 519.075 L 885.054 495.836 C 878.106 486.356 712.807 263 500.147 263 L 500.128 263 Z " fill="rgb(232,90,79)"/><path d=" M 323.484 519.078 C 323.484 421.551 402.679 342.591 500.128 342.591 C 597.635 342.591 676.771 421.551 676.771 519.078 C 676.771 616.82 597.635 695.878 500.128 695.878 C 402.679 695.878 323.484 616.84 323.484 519.078 Z " fill="rgb(232,90,79)"/><path d=" M 147.35 519.235 C 157.635 505.496 311.59 304.122 500.128 304.122 C 688.646 304.122 842.444 505.496 852.709 519.235 L 950 519.235 L 916.654 473.7 C 909.215 463.494 732.434 225.613 500.128 225.613 C 267.821 225.613 90.864 463.494 83.445 473.621 L 50 519.235 L 147.35 519.235 Z " fill="rgb(232,90,79)"/></g></svg>