<?xml version="1.0" encoding="UTF-8"?>
<svg version="1.1" viewBox="0 0 32 32" xmlns="http://www.w3.org/2000/svg" xmlns:cc="http://creativecommons.org/ns#" xmlns:dc="http://purl.org/dc/elements/1.1/" xmlns:rdf="http://www.w3.org/1999/02/22-rdf-syntax-ns#">
<metadata>
<rdf:RDF>
<cc:Work rdf:about="">
<dc:format>image/svg+xml</dc:format>
<dc:type rdf:resource="http://purl.org/dc/dcmitype/StillImage"/>
</cc:Work>
</rdf:RDF>
</metadata>
<title>speechless-face-avatar-boy-man-11</title>
<desc>Created with Sketch.</desc>
<g fill="#e85a4f" fill-rule="evenodd">
<path d="m24.573 23.094c1.5119-6.125-1.0186-10.939-3.1448-12.012-1.8296 1.6726-7.4342 5.9177-11.139 5.9177 1.9453-1.5615 2.5598-4.0605 2.5598-4.0605s-1.8629 2.7952-5.6027 4.0605c-0.79457 1.5731-0.56929 3.3507-0.45952 4.5362 0.06118 0.20421 0.16551 0.54936 0.20555 0.66327 0.098411 0.27997 0.21997 0.593 0.36561 0.93068 0.41652 0.96577 0.94093 1.9315 1.5795 2.8303 1.8016 2.5356 4.1303 4.0396 7.0627 4.0396 2.9311 0 5.2399-1.5026 7.0105-4.0364 0.62767-0.89825 1.1405-1.8636 1.5455-2.8289 0.0056917-0.013567 0.011345-0.027094 0.01696-0.040581zm-18.626-0.88247c-1.3321-2.0899-2.8166-9.0129-1.32-13.453 1.7796-5.2803 7.9837-7.7583 11.146-7.7583 3.0285 2e-8 6.0721 0.93994 7.2823 2.8062 0 0 2.0363-1.0559 3.8468 0-1.8105 0.3728-2.0141 1.3872-2.0141 1.3872 3.0355 1.7104 4.5698 11.891 1.2203 16.488-0.037445 0.1308-0.19626 0.68376-0.251 0.8449-0.10233 0.3012-0.22832 0.63577-0.37922 0.99548-0.43079 1.0268-0.97628 2.0537-1.6479 3.0148-1.9417 2.7787-4.5306 4.4636-7.8302 4.4636-3.2983 0-5.9048-1.6835-7.8779-4.4604-0.68257-0.96063-1.2399-1.987-1.6826-3.0135-0.15508-0.35958-0.28495-0.69401-0.39078-0.9951-0.022128-0.062952-0.060804-0.18557-0.10203-0.3194zm14.664-1.7154l1.1131 0.55657c0.24699 0.12349 0.3471 0.42383 0.22361 0.67082-0.12349 0.24699-0.42383 0.3471-0.67082 0.22361l-2-1c-0.36852-0.18426-0.36852-0.71017 0-0.89443l2-1c0.24699-0.12349 0.54733-0.023382 0.67082 0.22361 0.12349 0.24699 0.023382 0.54733-0.22361 0.67082l-1.1131 0.54901zm-9.2208 0l-1.1131 0.55657c-0.24699 0.12349-0.3471 0.42383-0.22361 0.67082 0.12349 0.24699 0.42383 0.3471 0.67082 0.22361l2-1c0.36852-0.18426 0.36852-0.71017 0-0.89443l-2-1c-0.24699-0.12349-0.54733-0.023382-0.67082 0.22361-0.12349 0.24699-0.023382 0.54733 0.22361 0.67082l1.1131 0.54901zm4.6105 6.5038c0.55228 0 1-0.44772 1-1s-0.44772-1-1-1-1 0.44772-1 1 0.44772 1 1 1z" fill="#e85a4f"/>
</g>
</svg>