<svg xmlns="http://www.w3.org/2000/svg" xmlns:xlink="http://www.w3.org/1999/xlink" version="1.1" x="0px" y="0px" viewBox="0 0 120.815 193.666" style="enable-background:new 0 0 120.815 193.666;" xml:space="preserve"><g><ellipse transform="matrix(0.5592 -0.8291 0.8291 0.5592 24.6923 91.4284)" cx="98.317" cy="22.496" rx="22.493" ry="22.495"></ellipse><path d="M38.858,34.474c-13.551,16.421-19.6,28.167-25.105,49.844c-2.137,12.257,2.941,18.366,9.273,21.981l0.822,0.979   l22.859,27.224l-17.095,41.943c-2.604,6.393,0.465,13.688,6.858,16.293c1.545,0.629,3.143,0.928,4.715,0.928   c4.931,0,9.602-2.938,11.579-7.785l19.938-48.926c1.746-4.283,0.975-9.213-2.002-12.756L36.067,82.952l0.512-1.019l-3.603-14.729   c-0.707-2.876-0.105-5.898,1.646-8.289l15.661-21.352c1.876-2.558,4.893-4.085,8.069-4.085c2.137,0,4.179,0.669,5.906,1.937   c2.153,1.579,3.563,3.902,3.971,6.542c0.406,2.64-0.242,5.281-1.821,7.434L53.508,66.984l2.231,9.122   c4.563-8.42,9.722-16.219,13.722-22.628c6.228-8.276,6.969-20.744-0.246-25.774C61.998,22.67,48.783,22.589,38.858,34.474z"></path><path d="M64.797,48.208c2.613-3.562,1.842-8.57-1.721-11.181c-3.562-2.613-8.569-1.842-11.181,1.72L36.236,60.099   c-1.402,1.912-1.883,4.325-1.318,6.631l4.052,16.567l15.764,18.773c2.649-1.831,4.037-5.161,3.226-8.474l-6.614-27.044   L64.797,48.208z"></path><path d="M53.394,17.584c0.886,0.003,1.955,0.267,3.26,1.09c0.467,0.295,1.084,0.157,1.381-0.31   c0.293-0.467,0.155-1.084-0.309-1.379c-1.561-0.991-3.026-1.404-4.331-1.402c-3.971,0.062-5.835,3.481-5.898,3.551   c-0.277,0.479-0.11,1.09,0.369,1.365c0.157,0.09,0.328,0.133,0.497,0.133c0.347,0,0.684-0.18,0.87-0.503h-0.003   c0-0.002,0.072-0.128,0.257-0.374C50.051,18.999,51.434,17.566,53.394,17.584z"></path><path d="M59.968,14.391c0.314-0.457,0.198-1.078-0.256-1.392c-2.466-1.7-4.758-2.369-6.77-2.367   c-5.462,0.054-8.332,4.626-8.402,4.698c-0.3,0.465-0.167,1.084,0.3,1.384c0.167,0.108,0.355,0.16,0.541,0.16   c0.328,0,0.649-0.161,0.842-0.458h-0.002c0-0.002,0.13-0.205,0.432-0.564c0.911-1.099,3.146-3.236,6.29-3.219   c1.57,0.002,3.433,0.501,5.636,2.013C59.033,14.959,59.654,14.845,59.968,14.391z"></path><path d="M7.525,92.22c-0.478-0.276-1.09-0.113-1.366,0.364c-0.865,1.49-1.227,2.881-1.227,4.123   c0.065,4.142,3.726,5.948,3.795,6.008c0.148,0.076,0.305,0.112,0.461,0.112c0.361,0,0.71-0.195,0.889-0.537   c0.254-0.49,0.064-1.094-0.427-1.35c0,0-0.136-0.069-0.4-0.251c-0.813-0.565-2.337-1.933-2.318-3.982   c0-0.851,0.241-1.877,0.959-3.121C8.166,93.106,8.004,92.496,7.525,92.22z"></path><path d="M3.473,90.448c-0.465-0.295-1.084-0.154-1.379,0.313C0.598,93.129-0.002,95.314,0,97.238   c0.058,5.705,4.976,8.521,5.048,8.586c0.159,0.094,0.334,0.139,0.507,0.139c0.342,0,0.676-0.176,0.863-0.493   c0.281-0.476,0.122-1.088-0.354-1.368v-0.002c0,0-0.221-0.128-0.608-0.427c-1.181-0.911-3.472-3.146-3.456-6.435   c0.002-1.509,0.455-3.296,1.786-5.411C4.081,91.359,3.941,90.743,3.473,90.448z"></path><path d="M80.391,131.124c0.111,0.039,0.225,0.058,0.336,0.058c0.411,0.001,0.797-0.256,0.942-0.665   c0.393-1.113,0.573-2.133,0.571-3.061c0.01-2.451-1.271-4.139-2.477-5.096c-1.211-0.971-2.367-1.325-2.439-1.35   c-0.527-0.164-1.087,0.133-1.25,0.662c-0.162,0.526,0.134,1.086,0.662,1.249c0,0,0.183,0.054,0.523,0.216   c1.061,0.52,2.994,1.753,2.98,4.318c0,0.671-0.127,1.46-0.458,2.39C79.598,130.365,79.869,130.939,80.391,131.124z"></path><path d="M84.691,132.141c0.122,0.049,0.247,0.072,0.371,0.072c0.397,0,0.773-0.238,0.93-0.629c0.735-1.84,1.055-3.499,1.053-4.987   c0.009-3.423-1.697-5.81-3.34-7.24c-1.647-1.448-3.246-2.037-3.316-2.065c-0.519-0.19-1.093,0.075-1.283,0.595   c-0.19,0.517,0.075,1.092,0.595,1.283l-0.002-0.003c0.002,0.003,0.299,0.11,0.808,0.386c1.568,0.855,4.552,2.98,4.54,7.044   c0,1.2-0.255,2.603-0.91,4.243C83.929,131.352,84.178,131.934,84.691,132.141z"></path><polygon points="67.233,90.588 113.348,85.234 113.826,80.713 67.363,88.468  "></polygon><polygon points="109.205,114.296 65.428,96.898 64.219,98.644 106.453,117.921  "></polygon><polygon points="102.152,49.821 64.209,77.738 65.049,79.687 103.77,54.073  "></polygon></g></svg>