<svg xmlns="http://www.w3.org/2000/svg" xmlns:xlink="http://www.w3.org/1999/xlink" version="1.1" x="0px" y="0px" viewBox="0 0 108.449 252.476" style="enable-background:new 0 0 108.449 252.476;" xml:space="preserve"><g><path d="M60.411,162.928h7.056l16.51,79.69c1.385,6.686,7.928,10.983,14.615,9.598c6.686-1.385,10.982-7.928,9.598-14.614   l-17.205-83.045V95.375c2.558-0.148,5.604-0.618,8.892-2.267c2.069-1.065,4.259-2.77,5.841-5.24   c1.602-2.456,2.413-5.524,2.393-8.539c-0.027-4.334-1.382-8.622-3.832-13.501c-2.477-4.877-6.153-10.396-11.439-16.987   c-1.988-2.479-5.15-3.452-8.051-2.779c-0.657,0.152-1.301,0.384-1.913,0.707c-4.997-7.783-14.513-11.975-24.037-9.758   c-5.94,1.384-10.774,5.006-13.827,9.764c-0.615-0.325-1.26-0.558-1.918-0.711c-2.902-0.674-6.063,0.297-8.053,2.775   c-5.287,6.593-8.966,12.111-11.444,16.989c-2.452,4.878-3.805,9.166-3.833,13.501c-0.021,3.015,0.792,6.085,2.394,8.54   c2.424,3.745,5.99,5.589,8.909,6.488c2.123,0.65,4.087,0.918,5.829,1.024v59.173l-17.205,83.047   c-1.385,6.686,2.912,13.229,9.598,14.614c6.687,1.386,13.229-2.911,14.615-9.598L60.411,162.928z M35.769,79.071   c0.059-0.857,0.51-2.912,2.099-6.01c0.783-1.549,1.845-3.363,3.189-5.413c0.436-0.665,0.901-1.354,1.401-2.071   c1.875,6.072,6.136,10.844,11.499,13.503c4.511,2.237,9.796,2.98,15.083,1.75c1.725-0.402,3.354-0.998,4.877-1.75   c5.592-2.762,9.702-7.701,11.506-13.495c0.5,0.718,0.966,1.408,1.401,2.074c1.34,2.044,2.399,3.853,3.18,5.399   c1.588,3.098,2.041,5.152,2.1,6.011c-0.658,0.214-1.969,0.397-3.124,0.377c-0.73,0.002-1.404-0.047-1.853-0.093   c-0.226-0.023-0.393-0.043-0.487-0.056c-0.037-0.007-0.063-0.011-0.075-0.012c-0.647-0.106-1.288-0.123-1.915-0.075   c-0.452-0.082-0.916-0.132-1.392-0.132h-5.406c-2.46,1.699-5.27,2.978-8.358,3.697c-6.995,1.629-13.987,0.083-19.467-3.697h-5.406   c-0.476,0-0.939,0.049-1.391,0.132c-0.633-0.049-1.28-0.032-1.934,0.077c-0.005,0.001-0.01,0.002-0.017,0.003   c-0.216,0.032-1.221,0.158-2.383,0.156C37.736,79.482,36.435,79.268,35.769,79.071z"></path><path d="M5.7,26.259l14.19,4.414c0.489,0.152,1.019,0.045,1.409-0.283c0.392-0.329,0.589-0.83,0.525-1.337l-2.14-16.975   l11.507,10.68c0.359,0.335,0.858,0.473,1.339,0.366c0.48-0.105,0.879-0.438,1.066-0.892l6.597-15.919l4.214,17.287   c0.119,0.493,0.485,0.896,0.963,1.062c0.478,0.166,1.013,0.08,1.413-0.23l10.707-8.299l-2.21,11.37   c-0.158,0.813,0.372,1.602,1.185,1.76c0.813,0.158,1.602-0.374,1.76-1.185v-0.002l2.972-15.285   c0.119-0.614-0.154-1.236-0.686-1.565c-0.532-0.327-1.212-0.292-1.705,0.092l-12.032,9.325L42.02,1.145   c-0.152-0.629-0.696-1.091-1.341-1.14c-0.647-0.049-1.253,0.323-1.501,0.92l-7.525,18.166L18.701,7.074   c-0.462-0.429-1.146-0.524-1.705-0.236c-0.561,0.288-0.883,0.898-0.805,1.522l2.366,18.756L2.399,22.091   C1.783,21.9,1.121,22.12,0.742,22.64c-0.38,0.52-0.386,1.218-0.016,1.744l12.268,17.52l-12.03,4.599   C0.392,46.719,0.013,47.259,0,47.871c-0.013,0.61,0.343,1.165,0.903,1.409l13.404,5.802c0.194,0.084,0.396,0.124,0.595,0.124   c0.58,0,1.132-0.338,1.377-0.904c0.331-0.762-0.021-1.645-0.779-1.974l-10.027-4.34l10.386-3.97   c0.43-0.164,0.764-0.522,0.898-0.963c0.135-0.44,0.06-0.922-0.205-1.298L5.7,26.259z"></path></g></svg>