<svg xmlns="http://www.w3.org/2000/svg" xmlns:xlink="http://www.w3.org/1999/xlink" version="1.1" x="0px" y="0px" viewBox="0 0 153.281 228.641" style="enable-background:new 0 0 153.281 228.641;" xml:space="preserve"><g><path d="M98.258,120.458c0.048-0.086,0.103-0.17,0.149-0.259c0.315-0.615,0.547-1.278,0.695-1.972   c0.016-0.072,0.036-0.145,0.049-0.217c0.025-0.131,0.038-0.264,0.056-0.396c0.019-0.134,0.04-0.267,0.051-0.401   c0.008-0.096,0.008-0.193,0.013-0.29c0.008-0.174,0.016-0.348,0.013-0.522c-0.001-0.019,0.002-0.037,0.001-0.057l-0.883-34.546   c-0.014-0.576-0.092-1.135-0.223-1.673c-3.896,0.104-7.873-0.717-11.596-2.583c-7.917-3.969-12.749-11.675-13.434-19.915   c-2.467-2.01-4.934-4.019-7.4-6.027c-0.22-0.182-0.479-0.352-0.763-0.513c-1.28-1.022-2.88-1.668-4.643-1.743   c-5.468-0.203-10.417,1.338-14.926,3.348c-6.745,3.059-12.668,7.404-17.093,11.004c-0.354,0.289-0.692,0.571-1.025,0.85   c-3.815,3.195-6.234,5.643-6.363,5.774c-2.098,2.125-2.834,5.207-1.926,8.053c0.667,2.086,2.129,3.764,4.023,4.713   c0.688,0.346,1.433,0.594,2.216,0.73l43.52,7.646c4.35,0.766,8.496-2.143,9.263-6.493c0.766-4.353-2.143-8.499-6.493-9.264   l-26.32-4.625c0.914-0.601,1.846-1.168,2.777-1.711l2.893,0.674l20.996,3.691c0.962,0.17,1.889,0.476,2.754,0.909   c2.188,1.097,3.839,2.949,4.74,5.123c0.465,0.152,0.924,0.328,1.367,0.551c1.814,0.908,3.291,2.332,4.272,4.113l9.192,16.697   l-1.422,1.563l-9.521-17.295c-0.772-1.402-1.906-2.476-3.219-3.182c0.144,1.015,0.137,2.06-0.046,3.101   c-0.893,5.069-5.481,8.578-10.505,8.246l11.911,21.635l2.869,5.212c0.006,0.011,0.014,0.019,0.019,0.029   c0.174,0.312,0.371,0.605,0.584,0.89c0.057,0.077,0.115,0.152,0.175,0.228c0.21,0.261,0.432,0.513,0.673,0.745   c0.055,0.054,0.113,0.101,0.17,0.151c0.21,0.191,0.43,0.371,0.658,0.539c0.072,0.053,0.143,0.107,0.216,0.158   c0.278,0.19,0.568,0.364,0.87,0.52c0.018,0.009,0.035,0.023,0.053,0.031c0.05,0.025,0.104,0.042,0.153,0.065   c0.2,0.096,0.403,0.184,0.611,0.263c0.077,0.029,0.153,0.057,0.231,0.083c0.213,0.073,0.428,0.137,0.648,0.191   c0.072,0.019,0.144,0.039,0.217,0.055c0.243,0.054,0.49,0.096,0.741,0.127c0.05,0.006,0.099,0.017,0.147,0.021   c0.276,0.029,0.556,0.046,0.839,0.046c0.019,0,0.037-0.001,0.056-0.001c0.025,0,0.05-0.001,0.075-0.001   c0.026,0,0.052,0,0.078-0.001c0.261-0.007,0.519-0.028,0.772-0.059c0.087-0.011,0.172-0.028,0.259-0.042   c0.229-0.035,0.456-0.077,0.678-0.132c0.093-0.023,0.184-0.053,0.276-0.079c0.211-0.06,0.418-0.127,0.622-0.203   c0.083-0.031,0.164-0.063,0.246-0.098c0.237-0.098,0.468-0.207,0.692-0.326c0.035-0.019,0.071-0.031,0.106-0.051   c0.015-0.008,0.028-0.019,0.043-0.026c0.163-0.091,0.318-0.191,0.474-0.293c0.072-0.047,0.146-0.091,0.217-0.14   c0.12-0.084,0.234-0.177,0.35-0.268c0.096-0.075,0.195-0.147,0.287-0.227c0.066-0.058,0.127-0.121,0.191-0.181   c0.129-0.119,0.26-0.236,0.379-0.362c0.014-0.014,0.023-0.028,0.037-0.042c0.34-0.362,0.645-0.751,0.908-1.164   C98.112,120.728,98.182,120.592,98.258,120.458z"></path><path d="M67.067,93.195l-36.897-6.483c-2.962,8.744-5.118,18.091-7.714,29.254c-1.378,3.051-1.546,6.639-0.152,9.968h-0.002   c0.15,0.329,4.012,10.166,3.992,24.333c-0.083,15.553-4.258,36.035-23.158,57.524c-4.573,5.172-4.086,13.071,1.086,17.645   c2.378,2.103,5.332,3.136,8.275,3.136c3.458,0,6.899-1.427,9.37-4.222c23.271-26.216,29.511-53.798,29.428-74.083   c-0.002-1.35-0.03-2.668-0.08-3.955c1.119,1.41,2.269,2.965,3.411,4.668c6.133,9.172,11.983,22.175,11.996,39.326   c0,6.773-0.916,14.243-3.192,22.511c-1.835,6.655,2.073,13.538,8.731,15.371c1.111,0.307,2.229,0.452,3.328,0.453   c5.485,0,10.516-3.638,12.044-9.182c2.85-10.348,4.091-20.108,4.091-29.153c0.013-23.785-8.568-42.242-17.041-54.431   c-2.87-4.133-5.719-7.572-8.273-10.359c1.934-7.856,4.713-13.715,8.317-18.489l-7.128-12.947   C67.339,93.79,67.196,93.495,67.067,93.195z"></path><ellipse transform="matrix(0.4481 -0.894 0.894 0.4481 4.0998 117.9255)" cx="97.56" cy="55.642" rx="22.5" ry="22.5"></ellipse><path d="M77.59,14.373c-0.413,0.506-0.451,1.218-0.096,1.764l7.604,11.673c0.453,0.694,1.381,0.89,2.076,0.439   c0.694-0.454,0.892-1.382,0.44-2.076l-5.056-7.76l10.099,3.937c0.489,0.191,1.038,0.112,1.455-0.207   c0.419-0.32,0.638-0.83,0.58-1.354l-0.886-8.158l7.172,6.593c0.373,0.344,0.9,0.475,1.39,0.35c0.491-0.127,0.89-0.498,1.048-0.977   l4.109-12.271l3.802,11.912c0.148,0.466,0.517,0.832,0.987,0.976c0.468,0.146,0.979,0.051,1.365-0.252l8.979-7.025l-2.601,12.229   c-0.108,0.5,0.046,1.017,0.411,1.377c0.361,0.359,0.879,0.51,1.379,0.4l10.435-2.307l-8.877,10.649   c-0.295,0.354-0.411,0.828-0.314,1.276c0.097,0.451,0.399,0.835,0.815,1.034l7.125,3.434l-7.353,2.475   c-0.786,0.265-1.207,1.116-0.943,1.902c0.21,0.625,0.795,1.021,1.422,1.021c0.159,0,0.32-0.025,0.479-0.078v-0.003l10.842-3.648   c0.578-0.195,0.98-0.719,1.018-1.328c0.038-0.61-0.296-1.18-0.847-1.444l-8.709-4.198l10.456-12.541   c0.411-0.495,0.464-1.19,0.13-1.74c-0.336-0.551-0.978-0.824-1.605-0.685l-12.445,2.749l2.973-13.987   c0.132-0.616-0.137-1.251-0.671-1.584c-0.534-0.332-1.225-0.297-1.72,0.091l-10.531,8.239l-4.539-14.225   c-0.196-0.618-0.771-1.04-1.416-1.044c-0.648-0.007-1.229,0.409-1.434,1.023l-4.832,14.425l-8.406-7.727   c-0.459-0.423-1.133-0.517-1.689-0.234c-0.56,0.281-0.884,0.879-0.816,1.501l1.049,9.667l-12.146-4.736   C78.69,13.683,78,13.866,77.59,14.373z"></path><polygon points="153.271,90.602 130.261,90.579 133.474,98.802 112.319,97.007 112.277,97.977 137.307,102.901 134.385,93.545    153.281,94.843  "></polygon><polygon points="124.5,114.515 109.725,104.306 109.29,104.999 125.593,119.136 127.379,111.035 140.706,119.931 142.482,116.815    125.597,107.126  "></polygon><polygon points="123.734,78.11 138.402,72.306 136.874,69.118 119.571,77.362 124.935,82.392 108.39,88.634 108.703,89.373    129.287,84.096  "></polygon></g></svg>