<svg xmlns="http://www.w3.org/2000/svg" xmlns:xlink="http://www.w3.org/1999/xlink" version="1.1" x="0px" y="0px" viewBox="0 0 326 230.001" style="enable-background:new 0 0 326 230.001;" xml:space="preserve"><g><path d="M242.58,220.001H294v6c0,2.209,1.791,4,4,4h24c2.209,0,4-1.791,4-4v-71.332c0-2.209-1.791-4-4-4h-24c-2.209,0-4,1.791-4,4   v18.666h-51.172v44.061C242.828,218.287,242.734,219.155,242.58,220.001z"></path><path d="M213.826,173.335h-2.498v44.061c0,0.891-0.094,1.758-0.248,2.605h2.992c-0.154-0.847-0.246-1.714-0.246-2.605V173.335z"></path><path d="M41.979,168.166h45.047c2.209,0,4-1.791,4-4v-14c0-2.209-1.791-4-4-4H41.979c-2.209,0-4,1.791-4,4v14   C37.979,166.374,39.77,168.166,41.979,168.166z"></path><path d="M4,230.001h24c2.209,0,4-1.791,4-4v-6h150.572c-0.154-0.847-0.246-1.714-0.246-2.605v-44.061H32v-88c0-2.209-1.791-4-4-4H4   c-2.209,0-4,1.791-4,4v140.666C0,228.21,1.791,230.001,4,230.001z"></path><path d="M215.828,170.664v46.733c0,6.903,5.596,12.5,12.5,12.5c6.902,0,12.498-5.597,12.498-12.5v-59.233   c0-3.291-1.334-6.512-3.658-8.838c-2.328-2.328-5.549-3.662-8.84-3.662h-24.201c1.07,0.623,2.07,1.368,2.953,2.25   c2.699,2.695,4.248,6.432,4.248,10.25v12.5H215.828z"></path><path d="M183.662,170.664h0.666v46.733c0,6.903,5.596,12.5,12.5,12.5c6.902,0,12.498-5.597,12.498-12.5v-59.233   c0-3.291-1.334-6.512-3.658-8.838c-2.328-2.328-5.549-3.662-8.84-3.662h-13.166h-14.602l0.018-2h24.674v-43.227l30.387,37.496   c1.582,1.952,3.891,2.964,6.221,2.964c1.77,0,3.549-0.585,5.031-1.786c3.432-2.78,3.961-7.819,1.18-11.25v-0.002l-36.604-45.167   c-1.514-1.865-3.816-2.962-6.217-2.962h-1.445c-0.766,1.384-1.676,2.713-2.734,3.966c-8.727,10.313-24.215,11.604-34.527,2.878   c-1.025-0.868-1.959-1.804-2.805-2.794c-6.041,3.194-11.359,6.078-15.883,8.615l-1.809-1.276c4.469-2.519,9.902-5.48,16.436-8.938   c-3.316-4.609-4.867-10.171-4.566-15.68c-9.779,5.141-17.396,9.311-23.242,12.683c-1.076,0.622-2.068,1.205-3.025,1.772   c-4.824,2.856-8.221,5.064-10.68,6.95c-0.01,0.008-0.02,0.018-0.029,0.025c-1.156,0.896-2.121,1.707-3.092,2.781   c-0.492,0.556-1.002,1.178-1.527,2.12c-0.5,0.936-1.127,2.273-1.154,4.366c-0.041,1.679,0.637,3.812,1.811,5.24   c1.793,2.188,3.658,2.761,4.814,3.084c1.219,0.301,2.078,0.327,2.865,0.335c1.809-0.015,3.277-0.266,4.955-0.59   c5.684-1.148,13.336-3.617,19.932-5.843c0.551-0.187,1.086-0.371,1.617-0.553v59.292c0,6.904,5.598,12.502,12.502,12.502v-0.002   h16.684H183.662z"></path><path d="M294,63c17.396,0,31.5-14.104,31.5-31.5C325.5,14.103,311.396,0,294,0c-17.397,0-31.5,14.103-31.5,31.5   C262.5,48.896,276.603,63,294,63z M294,3.998c15.162,0,27.5,12.338,27.5,27.502c0,15.164-12.338,27.5-27.5,27.5   c-15.164,0-27.502-12.336-27.502-27.5C266.498,16.336,278.836,3.998,294,3.998z"></path><polygon points="297.166,12.166 293.168,12.166 293.166,12.166 293.166,31.667 276.166,31.667 276.166,35.665 297.166,35.665  "></polygon><path d="M156.334,85.048c9.486,8.025,23.686,6.841,31.711-2.645c3.424-4.047,5.156-8.951,5.299-13.867   c-13.867-8.409-39.061-10.385-42.629-10.626C146.232,66.965,148.273,78.229,156.334,85.048z"></path><path d="M159.137,39.782c1.674,7.311-7.74,7.86-7.035,16.316c0,0,27.924,1.574,41.811,10.705c0.076-3.754-0.779-7.863-2.318-11.993   c-5.768-15.472-21.268-31.227-34.605-29.808c-0.402,0.042-0.803,0.085-1.199,0.159C138.672,28.362,157.463,32.472,159.137,39.782z"></path><polygon points="139.033,35.762 142.559,53.371 143.355,53.175 141.461,31.682 134.545,36.262 131.15,20.604 127.707,21.609    133.107,40.311  "></polygon><polygon points="116.393,58.55 132.625,65.566 132.912,64.818 114.449,54.302 114.277,62.463 99.699,56.442 98.582,59.796    116.752,65.896  "></polygon><polygon points="121.66,40.82 135.619,56.817 136.324,56.148 121.754,35.209 117.352,43.965 104.668,29.899 101.729,32.953    118.254,48.964  "></polygon></g></svg>