<svg xmlns="http://www.w3.org/2000/svg" xmlns:xlink="http://www.w3.org/1999/xlink" version="1.1" x="0px" y="0px" viewBox="0 0 174.17 206.627" style="enable-background:new 0 0 174.17 206.627;" xml:space="preserve"><g><path d="M122.134,36.078C117.736,42.657,110.243,47,101.753,47c-12.396,0-22.665-9.256-24.275-21.216   c-1.715-0.381-3.428-0.763-5.143-1.143c-0.174-0.041-0.372-0.059-0.566-0.081c-0.767-0.244-1.582-0.378-2.431-0.378   c-3.297,0.008-6.241,0.919-8.876,2.137c-4.607,2.171-8.605,5.33-12.781,8.87c-6.217,5.318-12.711,11.62-19.729,17.108   c-7.005,5.501-14.446,10.09-22.146,12.275c-4.249,1.214-6.708,5.643-5.495,9.892c1.004,3.512,4.208,5.802,7.689,5.802   c0.729,0,1.468-0.1,2.202-0.31c16.26-4.716,28.815-15.683,39.054-24.771c2.162-1.938,4.214-3.793,6.15-5.505   c-1.145,16.747,1.877,30.278,6.259,48.526c0.065,0.327,0.132,0.654,0.225,0.98c0.128,0.457,2.7,10.188,2.694,25.518   c-0.004,16.369-2.892,39.039-14.647,64.108c-2.933,6.251-0.241,13.693,6.008,16.626c1.716,0.805,3.522,1.186,5.301,1.187   c4.698,0,9.198-2.661,11.325-7.194c13.573-28.933,17.021-55.429,17.015-74.726c-0.001-3.466-0.112-6.698-0.294-9.681   c2.338,2.157,6.184,6.084,9.908,11.556c5.875,8.638,11.415,20.737,11.424,36.386c-0.005,7.879-1.396,16.76-5.102,26.838   c-2.385,6.479,0.936,13.665,7.416,16.049c1.422,0.523,2.881,0.772,4.314,0.772c5.09,0,9.873-3.131,11.732-8.187   c4.667-12.67,6.643-24.595,6.639-35.473c0.008-22.458-8.355-39.994-16.547-51.594c-3.918-5.555-7.797-9.826-10.87-12.851   c-7.31-22.394-3.211-34.137,5.325-48.358c9.365,2.639,27.729,9.813,47.078,28.52c1.553,1.501,3.558,2.248,5.56,2.248   c2.093,0.001,4.183-0.816,5.752-2.44c3.072-3.175,2.987-8.24-0.19-11.313C152.601,48.691,134.065,40.052,122.134,36.078z"></path><circle cx="101.753" cy="22.5" r="22.5"></circle><rect x="116.62" y="61.684" transform="matrix(0.9517 -0.3069 0.3069 0.9517 -19.5331 40.1373)" width="2.499" height="41"></rect><rect x="131.753" y="53.433" transform="matrix(0.7882 -0.6155 0.6155 0.7882 -17.3279 97.5219)" width="2.499" height="41"></rect><rect x="131.262" y="71.341" transform="matrix(0.8788 -0.4771 0.4771 0.8788 -26.8354 74.0732)" width="2.333" height="37.067"></rect></g></svg>